<?xml version="1.0" encoding="UTF-8"?>
<!DOCTYPE svg PUBLIC "-//W3C//DTD SVG 1.1//EN" "http://www.w3.org/Graphics/SVG/1.1/DTD/svg11.dtd">
<svg xmlns="http://www.w3.org/2000/svg" version="1.1" width="96px" height="96px" style="shape-rendering:geometricPrecision; text-rendering:geometricPrecision; image-rendering:optimizeQuality; fill-rule:evenodd; clip-rule:evenodd" xmlns:xlink="http://www.w3.org/1999/xlink">
<g><path style="opacity:0.608" fill="#7aa2d5" d="M 48.5,8.5 C 52.0769,8.02105 55.7436,7.68772 59.5,7.5C 59.5,8.5 59.5,9.5 59.5,10.5C 58.8333,10.5 58.1667,10.5 57.5,10.5C 54.4606,9.99003 51.4606,9.32336 48.5,8.5 Z"/></g>
<g><path style="opacity:0.878" fill="#5c94d0" d="M 48.5,8.5 C 51.4606,9.32336 54.4606,9.99003 57.5,10.5C 57.1959,12.7957 56.1959,13.129 54.5,11.5C 52.8828,10.962 51.2161,10.6287 49.5,10.5C 48.8333,10.5 48.1667,10.5 47.5,10.5C 47.8333,9.83333 48.1667,9.16667 48.5,8.5 Z"/></g>
<g><path style="opacity:0.976" fill="#72a1df" d="M 38.5,10.5 C 38.1667,10.5 37.8333,10.5 37.5,10.5C 35.7162,10.8925 34.0495,11.5592 32.5,12.5C 31.2976,13.4054 29.9643,13.4054 28.5,12.5C 30.4407,10.2774 32.9407,8.94407 36,8.5C 37.3756,8.68423 38.2089,9.35089 38.5,10.5 Z"/></g>
<g><path style="opacity:0.408" fill="#8dbdf0" d="M 48.5,8.5 C 48.1667,9.16667 47.8333,9.83333 47.5,10.5C 44.8555,12.2419 41.8555,12.9086 38.5,12.5C 38.1667,12.5 37.8333,12.5 37.5,12.5C 37.5,11.8333 37.5,11.1667 37.5,10.5C 37.8333,10.5 38.1667,10.5 38.5,10.5C 39.4486,11.1524 40.6153,11.4857 42,11.5C 44.5096,11.0234 46.6763,10.0234 48.5,8.5 Z"/></g>
<g><path style="opacity:0.475" fill="#7397c1" d="M 57.5,10.5 C 58.1667,10.5 58.8333,10.5 59.5,10.5C 61.6988,12.0985 64.0321,13.4318 66.5,14.5C 66.5,15.1667 66.1667,15.5 65.5,15.5C 63.3952,15.8607 61.5618,14.8607 60,12.5C 59.7645,14.1193 58.9311,15.1193 57.5,15.5C 56.2112,14.3634 55.2112,13.0301 54.5,11.5C 56.1959,13.129 57.1959,12.7957 57.5,10.5 Z"/></g>
<g><path style="opacity:0.039" fill="#67799e" d="M 49.5,10.5 C 51.2161,10.6287 52.8828,10.962 54.5,11.5C 55.2112,13.0301 56.2112,14.3634 57.5,15.5C 56.8333,15.8333 56.1667,16.1667 55.5,16.5C 53.9236,15.8571 52.5903,14.8571 51.5,13.5C 51.5,12.8333 51.1667,12.5 50.5,12.5C 50.1667,11.8333 49.8333,11.1667 49.5,10.5 Z"/></g>
<g><path style="opacity:0.988" fill="#5b9fe9" d="M 28.5,12.5 C 29.9643,13.4054 31.2976,13.4054 32.5,12.5C 32.5,13.5 32.5,14.5 32.5,15.5C 31.4138,15.62 30.7472,16.2867 30.5,17.5C 30.8457,18.8492 31.179,20.1825 31.5,21.5C 30.1667,22.5 28.8333,23.5 27.5,24.5C 26.8333,24.5 26.5,24.8333 26.5,25.5C 25.2921,24.7659 23.9587,24.4326 22.5,24.5C 23.1667,23.8333 23.8333,23.1667 24.5,22.5C 25.1667,22.5 25.5,22.1667 25.5,21.5C 25.5,21.1667 25.5,20.8333 25.5,20.5C 26.1667,20.5 26.8333,20.5 27.5,20.5C 28.4731,18.0521 28.8064,15.3854 28.5,12.5 Z"/></g>
<g><path style="opacity:0.702" fill="#688ab2" d="M 37.5,10.5 C 37.5,11.1667 37.5,11.8333 37.5,12.5C 37.1667,12.5 36.8333,12.5 36.5,12.5C 35.8333,12.5 35.5,12.8333 35.5,13.5C 35.1898,15.1436 34.1898,16.1436 32.5,16.5C 32.5,16.1667 32.5,15.8333 32.5,15.5C 32.5,14.5 32.5,13.5 32.5,12.5C 34.0495,11.5592 35.7162,10.8925 37.5,10.5 Z"/></g>
<g><path style="opacity:0.949" fill="#5894da" d="M 47.5,10.5 C 48.1667,10.5 48.8333,10.5 49.5,10.5C 49.8333,11.1667 50.1667,11.8333 50.5,12.5C 50.1667,12.5 49.8333,12.5 49.5,12.5C 48.0755,10.9689 47.4088,11.3023 47.5,13.5C 47.7373,14.791 47.404,15.791 46.5,16.5C 46.5,15.5 46.5,14.5 46.5,13.5C 45.5,13.5 44.5,13.5 43.5,13.5C 42.7784,13.9175 42.2784,14.5842 42,15.5C 40.5098,14.2721 39.0098,14.2721 37.5,15.5C 37.5569,14.391 37.8902,13.391 38.5,12.5C 41.8555,12.9086 44.8555,12.2419 47.5,10.5 Z"/></g>
<g><path style="opacity:0.706" fill="#83aecd" d="M 28.5,12.5 C 28.8064,15.3854 28.4731,18.0521 27.5,20.5C 27.7678,18.901 27.4345,17.5676 26.5,16.5C 26.0618,16.5654 25.7284,16.3988 25.5,16C 26.6364,14.8549 27.6364,13.6883 28.5,12.5 Z"/></g>
<g><path style="opacity:0.71" fill="#608fc4" d="M 43.5,13.5 C 44.5,13.5 45.5,13.5 46.5,13.5C 46.5,14.5 46.5,15.5 46.5,16.5C 45.8333,16.8333 45.1667,17.1667 44.5,17.5C 43.5084,17.3284 42.8417,17.6618 42.5,18.5C 41.7109,18.2172 41.0442,17.7172 40.5,17C 43.4473,16.9245 44.4473,15.7578 43.5,13.5 Z"/></g>
<g><path style="opacity:0.706" fill="#75a0ce" d="M 49.5,12.5 C 49.8417,13.3382 50.5084,13.6716 51.5,13.5C 52.5903,14.8571 53.9236,15.8571 55.5,16.5C 53.4471,16.4021 51.7804,17.0687 50.5,18.5C 50.1667,18.5 49.8333,18.5 49.5,18.5C 49.5,18.1667 49.5,17.8333 49.5,17.5C 49.3404,15.847 48.6737,14.5137 47.5,13.5C 47.4088,11.3023 48.0755,10.9689 49.5,12.5 Z"/></g>
<g><path style="opacity:1" fill="#5399e5" d="M 65.5,15.5 C 65.5,16.1667 65.5,16.8333 65.5,17.5C 64.5,17.5 63.5,17.5 62.5,17.5C 61.1667,17.5 59.8333,17.5 58.5,17.5C 57.6618,17.1583 57.3284,16.4916 57.5,15.5C 58.9311,15.1193 59.7645,14.1193 60,12.5C 61.5618,14.8607 63.3952,15.8607 65.5,15.5 Z"/></g>
<g><path style="opacity:0.867" fill="#6b9fd7" d="M 36.5,12.5 C 36.8333,12.5 37.1667,12.5 37.5,12.5C 37.8333,12.5 38.1667,12.5 38.5,12.5C 37.8902,13.391 37.5569,14.391 37.5,15.5C 36.8333,15.5 36.5,15.8333 36.5,16.5C 36.189,17.4778 35.5223,18.1445 34.5,18.5C 33.5745,17.3595 32.7412,17.3595 32,18.5C 31.3083,17.5632 31.475,16.8966 32.5,16.5C 34.1898,16.1436 35.1898,15.1436 35.5,13.5C 36.1667,13.5 36.5,13.1667 36.5,12.5 Z"/></g>
<g><path style="opacity:0.329" fill="#7b93ba" d="M 43.5,13.5 C 44.4473,15.7578 43.4473,16.9245 40.5,17C 41.0442,17.7172 41.7109,18.2172 42.5,18.5C 42.5,18.8333 42.5,19.1667 42.5,19.5C 41.8333,19.5 41.1667,19.5 40.5,19.5C 40.1583,18.6618 39.4916,18.3284 38.5,18.5C 37.8333,17.8333 37.1667,17.1667 36.5,16.5C 36.5,15.8333 36.8333,15.5 37.5,15.5C 39.0098,14.2721 40.5098,14.2721 42,15.5C 42.2784,14.5842 42.7784,13.9175 43.5,13.5 Z"/></g>
<g><path style="opacity:0.992" fill="#5d9ee4" d="M 66.5,14.5 C 67.5,14.8333 68.1667,15.5 68.5,16.5C 68.9465,19.0101 68.2798,21.0101 66.5,22.5C 66.5,21.5 66.5,20.5 66.5,19.5C 66.1667,18.8333 65.8333,18.1667 65.5,17.5C 65.5,16.8333 65.5,16.1667 65.5,15.5C 66.1667,15.5 66.5,15.1667 66.5,14.5 Z"/></g>
<g><path style="opacity:0.929" fill="#5e93d3" d="M 57.5,15.5 C 57.3284,16.4916 57.6618,17.1583 58.5,17.5C 58.5,17.8333 58.5,18.1667 58.5,18.5C 56.901,18.2322 55.5676,18.5655 54.5,19.5C 53.1667,19.1667 51.8333,18.8333 50.5,18.5C 51.7804,17.0687 53.4471,16.4021 55.5,16.5C 56.1667,16.1667 56.8333,15.8333 57.5,15.5 Z"/></g>
<g><path style="opacity:0.873" fill="#5d97d6" d="M 47.5,13.5 C 48.6737,14.5137 49.3404,15.847 49.5,17.5C 48.7387,18.3909 47.7387,19.0576 46.5,19.5C 45.2867,19.2528 44.62,18.5862 44.5,17.5C 45.1667,17.1667 45.8333,16.8333 46.5,16.5C 47.404,15.791 47.7373,14.791 47.5,13.5 Z"/></g>
<g><path style="opacity:0.365" fill="#8faed0" d="M 54.5,19.5 C 55.5676,18.5655 56.901,18.2322 58.5,18.5C 59.4511,19.9187 59.7845,21.5853 59.5,23.5C 58.6091,22.7387 57.9424,21.7387 57.5,20.5C 56.675,19.6143 55.675,19.281 54.5,19.5 Z"/></g>
<g><path style="opacity:0.675" fill="#7093cb" d="M 26.5,16.5 C 27.4345,17.5676 27.7678,18.901 27.5,20.5C 26.8333,20.5 26.1667,20.5 25.5,20.5C 24.5,20.5 23.5,20.5 22.5,20.5C 23.3696,18.7263 24.703,17.393 26.5,16.5 Z"/></g>
<g><path style="opacity:0.996" fill="#5598de" d="M 32.5,15.5 C 32.5,15.8333 32.5,16.1667 32.5,16.5C 31.475,16.8966 31.3083,17.5632 32,18.5C 32.7412,17.3595 33.5745,17.3595 34.5,18.5C 35.5223,18.1445 36.189,17.4778 36.5,16.5C 37.1667,17.1667 37.8333,17.8333 38.5,18.5C 36.3713,19.2028 34.3713,20.2028 32.5,21.5C 32.1667,21.5 31.8333,21.5 31.5,21.5C 31.179,20.1825 30.8457,18.8492 30.5,17.5C 30.7472,16.2867 31.4138,15.62 32.5,15.5 Z"/></g>
<g><path style="opacity:0.204" fill="#748296" d="M 38.5,18.5 C 39.4916,18.3284 40.1583,18.6618 40.5,19.5C 37.8298,20.2479 35.1631,21.2479 32.5,22.5C 32.5,22.1667 32.5,21.8333 32.5,21.5C 34.3713,20.2028 36.3713,19.2028 38.5,18.5 Z"/></g>
<g><path style="opacity:0.733" fill="#7792b0" d="M 44.5,17.5 C 44.62,18.5862 45.2867,19.2528 46.5,19.5C 47.7387,19.0576 48.7387,18.3909 49.5,17.5C 49.5,17.8333 49.5,18.1667 49.5,18.5C 49.5824,20.2517 48.7491,21.2517 47,21.5C 45.415,20.9561 43.915,20.2894 42.5,19.5C 42.5,19.1667 42.5,18.8333 42.5,18.5C 42.8417,17.6618 43.5084,17.3284 44.5,17.5 Z"/></g>
<g><path style="opacity:0.953" fill="#5e99d8" d="M 62.5,17.5 C 63.5,17.5 64.5,17.5 65.5,17.5C 65.8333,18.1667 66.1667,18.8333 66.5,19.5C 65.5,19.8333 64.8333,20.5 64.5,21.5C 62.8958,20.713 62.2291,19.3797 62.5,17.5 Z"/></g>
<g><path style="opacity:0.071" fill="#7d98b3" d="M 68.5,16.5 C 69.7079,17.2341 71.0413,17.5674 72.5,17.5C 72.5,18.1667 72.1667,18.5 71.5,18.5C 69.7549,20.0326 68.7549,22.0326 68.5,24.5C 67.7611,24.369 67.0944,24.5357 66.5,25C 67.5707,25.8518 68.5707,26.6851 69.5,27.5C 68.6348,27.5639 67.6348,27.8973 66.5,28.5C 66.2671,26.9382 65.6005,25.6049 64.5,24.5C 65.1667,23.8333 65.8333,23.1667 66.5,22.5C 68.2798,21.0101 68.9465,19.0101 68.5,16.5 Z"/></g>
<g><path style="opacity:0.784" fill="#6a91be" d="M 58.5,18.5 C 58.5,18.1667 58.5,17.8333 58.5,17.5C 59.8333,17.5 61.1667,17.5 62.5,17.5C 62.2291,19.3797 62.8958,20.713 64.5,21.5C 63.4583,22.7911 62.2917,22.7911 61,21.5C 60.5357,22.0944 60.369,22.7611 60.5,23.5C 60.1667,23.5 59.8333,23.5 59.5,23.5C 59.7845,21.5853 59.4511,19.9187 58.5,18.5 Z"/></g>
<g><path style="opacity:0.671" fill="#68a1df" d="M 71.5,18.5 C 70.8505,20.4352 70.5172,22.4352 70.5,24.5C 69.8333,25.8333 69.1667,25.8333 68.5,24.5C 68.7549,22.0326 69.7549,20.0326 71.5,18.5 Z"/></g>
<g><path style="opacity:0.455" fill="#6c88a7" d="M 72.5,17.5 C 73.7736,18.1894 73.7736,19.0228 72.5,20C 73.4158,20.2784 74.0825,20.7784 74.5,21.5C 73.596,22.209 73.2627,23.209 73.5,24.5C 73.1667,24.5 72.8333,24.5 72.5,24.5C 71.8333,24.5 71.1667,24.5 70.5,24.5C 70.5172,22.4352 70.8505,20.4352 71.5,18.5C 72.1667,18.5 72.5,18.1667 72.5,17.5 Z"/></g>
<g><path style="opacity:0.612" fill="#5e86a6" d="M 22.5,20.5 C 23.5,20.5 24.5,20.5 25.5,20.5C 25.5,20.8333 25.5,21.1667 25.5,21.5C 24.8333,21.5 24.5,21.8333 24.5,22.5C 23.8333,23.1667 23.1667,23.8333 22.5,24.5C 21.8333,24.1667 21.1667,23.8333 20.5,23.5C 20.5,23.1667 20.5,22.8333 20.5,22.5C 20.5,21.1667 21.1667,20.5 22.5,20.5 Z"/></g>
<g><path style="opacity:0.788" fill="#6891c8" d="M 66.5,19.5 C 66.5,20.5 66.5,21.5 66.5,22.5C 65.8333,23.1667 65.1667,23.8333 64.5,24.5C 63.2921,23.7659 61.9587,23.4326 60.5,23.5C 60.369,22.7611 60.5357,22.0944 61,21.5C 62.2917,22.7911 63.4583,22.7911 64.5,21.5C 64.8333,20.5 65.5,19.8333 66.5,19.5 Z"/></g>
<g><path style="opacity:0.063" fill="#576c93" d="M 31.5,21.5 C 31.8333,21.5 32.1667,21.5 32.5,21.5C 32.5,21.8333 32.5,22.1667 32.5,22.5C 31.4561,24.8147 30.1228,26.8147 28.5,28.5C 28.5394,27.4168 28.8728,26.4168 29.5,25.5C 29.0431,24.7025 28.3764,24.3691 27.5,24.5C 28.8333,23.5 30.1667,22.5 31.5,21.5 Z"/></g>
<g><path style="opacity:0.557" fill="#7a9dc4" d="M 74.5,21.5 C 76.9122,24.1785 79.5788,26.5118 82.5,28.5C 79.464,27.8913 76.464,27.558 73.5,27.5C 73.5,26.8333 73.5,26.1667 73.5,25.5C 73.5,25.1667 73.5,24.8333 73.5,24.5C 73.2627,23.209 73.596,22.209 74.5,21.5 Z"/></g>
<g><path style="opacity:0.851" fill="#6092ce" d="M 20.5,23.5 C 21.1667,23.8333 21.8333,24.1667 22.5,24.5C 23.9587,24.4326 25.2921,24.7659 26.5,25.5C 26.5,26.8333 26.5,28.1667 26.5,29.5C 26.1667,29.5 25.8333,29.5 25.5,29.5C 24.7659,28.2921 24.4326,26.9587 24.5,25.5C 23.5,25.5 22.5,25.5 21.5,25.5C 20.325,25.719 19.325,25.3857 18.5,24.5C 18.9569,23.7025 19.6236,23.3691 20.5,23.5 Z"/></g>
<g><path style="opacity:0.824" fill="#7a93c4" d="M 27.5,24.5 C 28.3764,24.3691 29.0431,24.7025 29.5,25.5C 28.8728,26.4168 28.5394,27.4168 28.5,28.5C 27.8333,28.8333 27.1667,29.1667 26.5,29.5C 26.5,28.1667 26.5,26.8333 26.5,25.5C 26.5,24.8333 26.8333,24.5 27.5,24.5 Z"/></g>
<g><path style="opacity:0.404" fill="#8eaecf" d="M 20.5,22.5 C 20.5,22.8333 20.5,23.1667 20.5,23.5C 19.6236,23.3691 18.9569,23.7025 18.5,24.5C 19.325,25.3857 20.325,25.719 21.5,25.5C 21.5,25.8333 21.5,26.1667 21.5,26.5C 21.1667,26.5 20.8333,26.5 20.5,26.5C 18.8612,26.9258 17.5279,26.9258 16.5,26.5C 17.2341,25.2921 17.5674,23.9587 17.5,22.5C 18.5,22.5 19.5,22.5 20.5,22.5 Z"/></g>
<g><path style="opacity:0.969" fill="#5f9de1" d="M 68.5,24.5 C 69.1667,25.8333 69.8333,25.8333 70.5,24.5C 71.1667,24.5 71.8333,24.5 72.5,24.5C 72.5,25.1667 72.8333,25.5 73.5,25.5C 73.5,26.1667 73.5,26.8333 73.5,27.5C 72.3478,26.375 71.3478,26.375 70.5,27.5C 70.1667,27.5 69.8333,27.5 69.5,27.5C 68.5707,26.6851 67.5707,25.8518 66.5,25C 67.0944,24.5357 67.7611,24.369 68.5,24.5 Z"/></g>
<g><path style="opacity:0.349" fill="#758eb1" d="M 21.5,25.5 C 22.5,25.5 23.5,25.5 24.5,25.5C 24.4326,26.9587 24.7659,28.2921 25.5,29.5C 25.1667,30.5 24.5,31.1667 23.5,31.5C 23.8507,29.7972 23.184,28.1305 21.5,26.5C 21.5,26.1667 21.5,25.8333 21.5,25.5 Z"/></g>
<g><path style="opacity:0.761" fill="#6090c7" d="M 20.5,26.5 C 20.8333,26.5 21.1667,26.5 21.5,26.5C 23.184,28.1305 23.8507,29.7972 23.5,31.5C 23.7845,33.4147 23.4511,35.0813 22.5,36.5C 22.5,35.8333 22.1667,35.5 21.5,35.5C 21.5,34.1667 21.5,32.8333 21.5,31.5C 20.0878,30.8344 18.7545,30.5011 17.5,30.5C 18.7888,29.3634 19.7888,28.0301 20.5,26.5 Z"/></g>
<g><path style="opacity:0.643" fill="#6797c8" d="M 69.5,27.5 C 69.8333,27.5 70.1667,27.5 70.5,27.5C 71.2674,28.172 71.9341,29.0053 72.5,30C 72.2716,30.3988 71.9382,30.5654 71.5,30.5C 69.302,30.8799 67.6354,30.2132 66.5,28.5C 67.6348,27.8973 68.6348,27.5639 69.5,27.5 Z"/></g>
<g><path style="opacity:0.993" fill="#5d9de3" d="M 70.5,27.5 C 71.3478,26.375 72.3478,26.375 73.5,27.5C 76.464,27.558 79.464,27.8913 82.5,28.5C 81.8902,29.391 81.5569,30.391 81.5,31.5C 80.8333,31.5 80.5,31.8333 80.5,32.5C 79.4168,32.4606 78.4168,32.1272 77.5,31.5C 76.537,31.9698 76.537,32.6365 77.5,33.5C 76.1667,33.8333 74.8333,34.1667 73.5,34.5C 72.8333,33.1667 72.1667,31.8333 71.5,30.5C 71.9382,30.5654 72.2716,30.3988 72.5,30C 71.9341,29.0053 71.2674,28.172 70.5,27.5 Z"/></g>
<g><path style="opacity:0.969" fill="#619dea" d="M 16.5,26.5 C 17.5279,26.9258 18.8612,26.9258 20.5,26.5C 19.7888,28.0301 18.7888,29.3634 17.5,30.5C 17.1667,30.5 16.8333,30.5 16.5,30.5C 16.1667,30.5 15.8333,30.5 15.5,30.5C 15.6716,29.5084 15.3382,28.8417 14.5,28.5C 14.8333,27.5 15.5,26.8333 16.5,26.5 Z"/></g>
<g><path style="opacity:0.965" fill="#699bd1" d="M 52.5,29.5 C 52.7373,30.791 52.404,31.791 51.5,32.5C 48.8333,33.5 48.8333,34.5 51.5,35.5C 50.4324,36.4345 49.099,36.7678 47.5,36.5C 47.8545,34.2326 47.5211,32.8993 46.5,32.5C 46.1667,32.5 45.8333,32.5 45.5,32.5C 44.1667,33.1667 42.8333,33.8333 41.5,34.5C 41.5,33.8333 41.1667,33.5 40.5,33.5C 41.0065,32.1411 42.0065,31.1411 43.5,30.5C 43.3764,29.8933 43.0431,29.56 42.5,29.5C 44.3085,28.6059 46.1418,27.6059 48,26.5C 49.5772,27.5515 51.0772,28.5515 52.5,29.5 Z"/></g>
<g><path style="opacity:0.929" fill="#5f89b4" d="M 82.5,28.5 C 85.7058,30.5843 87.0391,33.5843 86.5,37.5C 85.5084,37.6716 84.8417,37.3382 84.5,36.5C 85.4646,35.2789 85.298,33.9456 84,32.5C 83.3292,31.7476 82.4959,31.4142 81.5,31.5C 81.5569,30.391 81.8902,29.391 82.5,28.5 Z"/></g>
<g><path style="opacity:0.635" fill="#78ade4" d="M 14.5,28.5 C 15.3382,28.8417 15.6716,29.5084 15.5,30.5C 15.5,31.5 15.5,32.5 15.5,33.5C 14.5,33.5 13.5,33.5 12.5,33.5C 13.0241,31.6943 13.6908,30.0276 14.5,28.5 Z"/></g>
<g><path style="opacity:0.557" fill="#76a8eb" d="M 42.5,29.5 C 43.0431,29.56 43.3764,29.8933 43.5,30.5C 42.0065,31.1411 41.0065,32.1411 40.5,33.5C 38.5,34.5 36.5,35.5 34.5,36.5C 33.5084,36.6716 32.8417,36.3382 32.5,35.5C 35.5017,32.997 38.8351,30.997 42.5,29.5 Z"/></g>
<g><path style="opacity:0.976" fill="#72a5dd" d="M 52.5,29.5 C 56.173,31.0002 59.5063,33.0002 62.5,35.5C 61.448,35.3505 60.448,35.5172 59.5,36C 60.6956,36.6543 60.6956,37.1543 59.5,37.5C 58.8165,37.1373 58.1499,36.8039 57.5,36.5C 56.4168,36.5394 55.4168,36.8728 54.5,37.5C 53.7025,37.0431 53.3691,36.3764 53.5,35.5C 52.4489,34.7777 51.7822,33.7777 51.5,32.5C 52.404,31.791 52.7373,30.791 52.5,29.5 Z"/></g>
<g><path style="opacity:0.953" fill="#5f9ade" d="M 80.5,32.5 C 80.5,31.8333 80.8333,31.5 81.5,31.5C 82.4959,31.4142 83.3292,31.7476 84,32.5C 85.298,33.9456 85.4646,35.2789 84.5,36.5C 83.8333,36.5 83.1667,36.5 82.5,36.5C 82.8432,34.5168 82.1765,33.1834 80.5,32.5 Z"/></g>
<g><path style="opacity:0.306" fill="#7091be" d="M 21.5,31.5 C 21.5,32.8333 21.5,34.1667 21.5,35.5C 20.603,36.5981 19.7697,36.5981 19,35.5C 18.5357,36.0944 18.369,36.7611 18.5,37.5C 17.5489,36.0813 17.2155,34.4147 17.5,32.5C 18.9587,32.5674 20.2921,32.2341 21.5,31.5 Z"/></g>
<g><path style="opacity:0.957" fill="#6897cf" d="M 80.5,32.5 C 82.1765,33.1834 82.8432,34.5168 82.5,36.5C 82.5,38.1667 82.5,39.8333 82.5,41.5C 82.5,41.8333 82.5,42.1667 82.5,42.5C 81.5,42.5 80.5,42.5 79.5,42.5C 79.8294,39.7718 79.1628,37.4385 77.5,35.5C 77.5,34.8333 77.5,34.1667 77.5,33.5C 76.537,32.6365 76.537,31.9698 77.5,31.5C 78.4168,32.1272 79.4168,32.4606 80.5,32.5 Z"/></g>
<g><path style="opacity:0.969" fill="#5699e2" d="M 15.5,30.5 C 15.8333,30.5 16.1667,30.5 16.5,30.5C 16.634,32.2915 16.3007,33.9582 15.5,35.5C 14.7611,35.369 14.0944,35.5357 13.5,36C 14.6956,36.6543 14.6956,37.1543 13.5,37.5C 12.8243,36.3984 12.1577,35.3984 11.5,34.5C 11.5,33.8333 11.8333,33.5 12.5,33.5C 13.5,33.5 14.5,33.5 15.5,33.5C 15.5,32.5 15.5,31.5 15.5,30.5 Z"/></g>
<g><path style="opacity:1" fill="#629ee0" d="M 16.5,30.5 C 16.8333,30.5 17.1667,30.5 17.5,30.5C 18.7545,30.5011 20.0878,30.8344 21.5,31.5C 20.2921,32.2341 18.9587,32.5674 17.5,32.5C 17.2155,34.4147 17.5489,36.0813 18.5,37.5C 18.5,38.5 18.5,39.5 18.5,40.5C 17.4412,42.5554 15.7746,43.8888 13.5,44.5C 13.5,44.1667 13.5,43.8333 13.5,43.5C 14.8062,42.5326 15.4729,41.1993 15.5,39.5C 16.3543,38.3684 16.3543,37.035 15.5,35.5C 16.3007,33.9582 16.634,32.2915 16.5,30.5 Z"/></g>
<g><path style="opacity:0.086" fill="#6d88ad" d="M 40.5,33.5 C 41.1667,33.5 41.5,33.8333 41.5,34.5C 41.5,34.8333 41.5,35.1667 41.5,35.5C 41.1667,35.5 40.8333,35.5 40.5,35.5C 38.8621,36.1589 37.1955,36.8256 35.5,37.5C 34.8933,37.3764 34.56,37.0431 34.5,36.5C 36.5,35.5 38.5,34.5 40.5,33.5 Z"/></g>
<g><path style="opacity:0.971" fill="#5e9ae2" d="M 77.5,33.5 C 77.5,34.1667 77.5,34.8333 77.5,35.5C 77.1898,37.1436 76.1898,38.1436 74.5,38.5C 74.5674,37.0413 74.2341,35.7079 73.5,34.5C 74.8333,34.1667 76.1667,33.8333 77.5,33.5 Z"/></g>
<g><path style="opacity:0.573" fill="#7a91ab" d="M 21.5,35.5 C 22.1667,35.5 22.5,35.8333 22.5,36.5C 21.791,37.404 20.791,37.7373 19.5,37.5C 19.7947,39.7354 19.4614,41.7354 18.5,43.5C 18.5,42.5 18.5,41.5 18.5,40.5C 18.5,39.5 18.5,38.5 18.5,37.5C 18.369,36.7611 18.5357,36.0944 19,35.5C 19.7697,36.5981 20.603,36.5981 21.5,35.5 Z"/></g>
<g><path style="opacity:0.827" fill="#8ab9ed" d="M 45.5,32.5 C 45.8333,32.5 46.1667,32.5 46.5,32.5C 46.5,34.1667 46.5,35.8333 46.5,37.5C 44.5,37.5 42.5,37.5 40.5,37.5C 40.5,36.8333 40.5,36.1667 40.5,35.5C 40.8333,35.5 41.1667,35.5 41.5,35.5C 42.8333,35.5 44.1667,35.5 45.5,35.5C 45.5,34.5 45.5,33.5 45.5,32.5 Z"/></g>
<g><path style="opacity:0.655" fill="#7aa8df" d="M 10.5,35.5 C 10.7329,37.0618 11.3995,38.3951 12.5,39.5C 11.8333,39.5 11.1667,39.5 10.5,39.5C 9.83333,39.5 9.16667,39.5 8.5,39.5C 6.99763,37.1707 7.6643,35.8373 10.5,35.5 Z"/></g>
<g><path style="opacity:0.027" fill="#86aad0" d="M 11.5,34.5 C 12.1577,35.3984 12.8243,36.3984 13.5,37.5C 14.6956,37.1543 14.6956,36.6543 13.5,36C 14.0944,35.5357 14.7611,35.369 15.5,35.5C 16.3543,37.035 16.3543,38.3684 15.5,39.5C 14.5,39.5 13.5,39.5 12.5,39.5C 11.3995,38.3951 10.7329,37.0618 10.5,35.5C 11.1667,35.5 11.5,35.1667 11.5,34.5 Z"/></g>
<g><path style="opacity:0.988" fill="#589deb" d="M 32.5,35.5 C 32.8417,36.3382 33.5084,36.6716 34.5,36.5C 34.56,37.0431 34.8933,37.3764 35.5,37.5C 37.1955,36.8256 38.8621,36.1589 40.5,35.5C 40.5,36.1667 40.5,36.8333 40.5,37.5C 40.5,37.8333 40.5,38.1667 40.5,38.5C 38.8333,38.5 37.1667,38.5 35.5,38.5C 33.8212,38.2852 32.8212,38.9519 32.5,40.5C 31.596,39.791 31.2627,38.791 31.5,37.5C 31.5,37.1667 31.5,36.8333 31.5,36.5C 31.5,35.8333 31.8333,35.5 32.5,35.5 Z"/></g>
<g><path style="opacity:0.957" fill="#7dace2" d="M 40.5,38.5 C 40.5,38.1667 40.5,37.8333 40.5,37.5C 42.5,37.5 44.5,37.5 46.5,37.5C 46.5,38.1667 46.5,38.8333 46.5,39.5C 44.9884,43.2009 42.9884,46.5342 40.5,49.5C 39.2101,50.0577 38.3768,51.0577 38,52.5C 37.6012,52.2716 37.4346,51.9382 37.5,51.5C 37.5,50.8333 37.5,50.1667 37.5,49.5C 40.827,47.1325 42.1604,44.1325 41.5,40.5C 41.6716,39.5084 41.3382,38.8417 40.5,38.5 Z"/></g>
<g><path style="opacity:0.977" fill="#559de9" d="M 62.5,35.5 C 62.8333,35.5 63.1667,35.5 63.5,35.5C 63.5,36.1667 63.5,36.8333 63.5,37.5C 63.6567,38.8734 63.49,40.2068 63,41.5C 62.5357,40.9056 62.369,40.2389 62.5,39.5C 60.7354,38.5386 58.7354,38.2053 56.5,38.5C 56.8333,37.8333 57.1667,37.1667 57.5,36.5C 58.1499,36.8039 58.8165,37.1373 59.5,37.5C 60.6956,37.1543 60.6956,36.6543 59.5,36C 60.448,35.5172 61.448,35.3505 62.5,35.5 Z"/></g>
<g><path style="opacity:0.784" fill="#6a7e9c" d="M 77.5,35.5 C 79.1628,37.4385 79.8294,39.7718 79.5,42.5C 78.2954,40.8624 76.9621,40.5291 75.5,41.5C 74.8902,40.609 74.5569,39.609 74.5,38.5C 76.1898,38.1436 77.1898,37.1436 77.5,35.5 Z"/></g>
<g><path style="opacity:0.114" fill="#7cabe2" d="M 31.5,36.5 C 31.5,36.8333 31.5,37.1667 31.5,37.5C 30.5206,40.6248 30.1872,43.9581 30.5,47.5C 30.335,50.8499 30.5017,54.1832 31,57.5C 31.3826,58.056 31.8826,58.3893 32.5,58.5C 32.5,58.8333 32.5,59.1667 32.5,59.5C 31.5041,59.5858 30.6708,59.2524 30,58.5C 29.8333,54.8333 29.6667,51.1667 29.5,47.5C 29.5112,43.4348 30.1778,39.7681 31.5,36.5 Z"/></g>
<g><path style="opacity:0.349" fill="#515b7a" d="M 35.5,38.5 C 37.1667,38.5 38.8333,38.5 40.5,38.5C 41.3382,38.8417 41.6716,39.5084 41.5,40.5C 39.8333,40.5 38.1667,40.5 36.5,40.5C 36.1667,39.8333 35.8333,39.1667 35.5,38.5 Z"/></g>
<g><path style="opacity:0.988" fill="#599ce5" d="M 51.5,35.5 C 52.1667,35.5 52.8333,35.5 53.5,35.5C 53.3691,36.3764 53.7025,37.0431 54.5,37.5C 55.4168,36.8728 56.4168,36.5394 57.5,36.5C 57.1667,37.1667 56.8333,37.8333 56.5,38.5C 56.1667,38.5 55.8333,38.5 55.5,38.5C 53.2646,38.2053 51.2646,38.5386 49.5,39.5C 48.8333,39.5 48.1667,39.5 47.5,39.5C 47.1667,39.5 46.8333,39.5 46.5,39.5C 46.5,38.8333 46.5,38.1667 46.5,37.5C 46.5,35.8333 46.5,34.1667 46.5,32.5C 47.5211,32.8993 47.8545,34.2326 47.5,36.5C 49.099,36.7678 50.4324,36.4345 51.5,35.5 Z"/></g>
<g><path style="opacity:0.271" fill="#54627b" d="M 55.5,38.5 C 55.8333,38.5 56.1667,38.5 56.5,38.5C 58.7354,38.2053 60.7354,38.5386 62.5,39.5C 61.8333,39.8333 61.1667,40.1667 60.5,40.5C 58.8333,40.5 57.1667,40.5 55.5,40.5C 55.5,39.8333 55.5,39.1667 55.5,38.5 Z"/></g>
<g><path style="opacity:0.02" fill="#8ba9ca" d="M 55.5,38.5 C 55.5,39.1667 55.5,39.8333 55.5,40.5C 54.2618,39.5876 52.9285,39.4209 51.5,40C 53.6966,42.4214 55.03,45.2548 55.5,48.5C 54.5,48.1667 53.8333,47.5 53.5,46.5C 52.4314,44.0313 51.0981,41.6979 49.5,39.5C 51.2646,38.5386 53.2646,38.2053 55.5,38.5 Z"/></g>
<g><path style="opacity:0.145" fill="#73a9e1" d="M 8.5,39.5 C 9.16667,39.5 9.83333,39.5 10.5,39.5C 10.4142,40.4959 10.7476,41.3292 11.5,42C 10.244,42.4169 9.57735,43.2502 9.5,44.5C 8.83333,44.5 8.16667,44.5 7.5,44.5C 7.36596,42.7085 7.69929,41.0418 8.5,39.5 Z"/></g>
<g><path style="opacity:0.753" fill="#5b88b8" d="M 35.5,38.5 C 35.8333,39.1667 36.1667,39.8333 36.5,40.5C 35.7611,40.369 35.0944,40.5357 34.5,41C 36.229,42.7889 36.8957,44.9556 36.5,47.5C 36.1667,47.5 35.8333,47.5 35.5,47.5C 35.0075,45.1815 34.0075,43.1815 32.5,41.5C 32.5,41.1667 32.5,40.8333 32.5,40.5C 32.8212,38.9519 33.8212,38.2852 35.5,38.5 Z"/></g>
<g><path style="opacity:0.927" fill="#6395d8" d="M 47.5,39.5 C 48.1667,39.5 48.8333,39.5 49.5,39.5C 51.0981,41.6979 52.4314,44.0313 53.5,46.5C 52.8333,46.8333 52.1667,47.1667 51.5,47.5C 49.7497,46.3406 48.7497,44.674 48.5,42.5C 48.4431,41.391 48.1098,40.391 47.5,39.5 Z"/></g>
<g><path style="opacity:0.812" fill="#79899d" d="M 82.5,36.5 C 83.1667,36.5 83.8333,36.5 84.5,36.5C 84.8417,37.3382 85.5084,37.6716 86.5,37.5C 86.3979,38.337 85.3979,39.0037 83.5,39.5C 84.1667,40.8333 84.8333,42.1667 85.5,43.5C 85.3764,44.1067 85.0431,44.44 84.5,44.5C 84.1667,44.5 83.8333,44.5 83.5,44.5C 83.7373,43.209 83.404,42.209 82.5,41.5C 82.5,39.8333 82.5,38.1667 82.5,36.5 Z"/></g>
<g><path style="opacity:0.024" fill="#5e799d" d="M 10.5,39.5 C 11.1667,39.5 11.8333,39.5 12.5,39.5C 13.5,39.5 14.5,39.5 15.5,39.5C 15.4729,41.1993 14.8062,42.5326 13.5,43.5C 11.3023,43.4088 10.9689,44.0755 12.5,45.5C 11.391,45.4431 10.391,45.1098 9.5,44.5C 9.57735,43.2502 10.244,42.4169 11.5,42C 10.7476,41.3292 10.4142,40.4959 10.5,39.5 Z"/></g>
<g><path style="opacity:0.929" fill="#579de8" d="M 31.5,37.5 C 31.2627,38.791 31.596,39.791 32.5,40.5C 32.5,40.8333 32.5,41.1667 32.5,41.5C 31.8333,41.5 31.5,41.8333 31.5,42.5C 31.5,44.1667 31.5,45.8333 31.5,47.5C 31.1667,47.5 30.8333,47.5 30.5,47.5C 30.1872,43.9581 30.5206,40.6248 31.5,37.5 Z"/></g>
<g><path style="opacity:0.973" fill="#659ddf" d="M 31.5,42.5 C 31.5,41.8333 31.8333,41.5 32.5,41.5C 34.0075,43.1815 35.0075,45.1815 35.5,47.5C 35.6716,48.4916 35.3382,49.1583 34.5,49.5C 34.1667,49.5 33.8333,49.5 33.5,49.5C 32.9346,47.0479 32.2679,44.7146 31.5,42.5 Z"/></g>
<g><path style="opacity:0.047" fill="#6385a2" d="M 46.5,39.5 C 46.8333,39.5 47.1667,39.5 47.5,39.5C 48.1098,40.391 48.4431,41.391 48.5,42.5C 45.4208,45.2565 43.0875,48.5899 41.5,52.5C 40.8333,52.8333 40.1667,53.1667 39.5,53.5C 39.8333,52.1667 40.1667,50.8333 40.5,49.5C 42.9884,46.5342 44.9884,43.2009 46.5,39.5 Z"/></g>
<g><path style="opacity:0.98" fill="#5c9bdf" d="M 63.5,37.5 C 64.4614,39.2646 64.7947,41.2646 64.5,43.5C 63.8333,44.8333 63.1667,46.1667 62.5,47.5C 62.5912,45.3023 61.9245,44.9689 60.5,46.5C 61.0965,44.602 61.0965,42.9354 60.5,41.5C 60.5,41.1667 60.5,40.8333 60.5,40.5C 61.1667,40.1667 61.8333,39.8333 62.5,39.5C 62.369,40.2389 62.5357,40.9056 63,41.5C 63.49,40.2068 63.6567,38.8734 63.5,37.5 Z"/></g>
<g><path style="opacity:0.953" fill="#5a7daa" d="M 82.5,41.5 C 83.404,42.209 83.7373,43.209 83.5,44.5C 82.3122,46.9906 82.3122,48.9906 83.5,50.5C 82.8333,50.5 82.1667,50.5 81.5,50.5C 81.1667,50.5 80.8333,50.5 80.5,50.5C 79.1667,49.5 79.1667,48.5 80.5,47.5C 81.9313,46.2196 82.5979,44.5529 82.5,42.5C 82.5,42.1667 82.5,41.8333 82.5,41.5 Z"/></g>
<g><path style="opacity:0.38" fill="#7aa4d3" d="M 79.5,42.5 C 80.5,42.5 81.5,42.5 82.5,42.5C 82.5979,44.5529 81.9313,46.2196 80.5,47.5C 79.209,47.7373 78.209,47.404 77.5,46.5C 77.5379,44.3639 78.2046,43.0306 79.5,42.5 Z"/></g>
<g><path style="opacity:0.522" fill="#5b7fa9" d="M 18.5,40.5 C 18.5,41.5 18.5,42.5 18.5,43.5C 18.1667,44.1667 17.8333,44.8333 17.5,45.5C 15.8297,45.7512 14.3297,46.4178 13,47.5C 12.5357,46.9056 12.369,46.2389 12.5,45.5C 13.1667,45.5 13.5,45.1667 13.5,44.5C 15.7746,43.8888 17.4412,42.5554 18.5,40.5 Z"/></g>
<g><path style="opacity:0.824" fill="#3e5f88" d="M 31.5,42.5 C 32.2679,44.7146 32.9346,47.0479 33.5,49.5C 32.5489,50.9187 32.2155,52.5853 32.5,54.5C 31.4902,52.9866 31.1569,50.6533 31.5,47.5C 31.5,45.8333 31.5,44.1667 31.5,42.5 Z"/></g>
<g><path style="opacity:0.588" fill="#81adeb" d="M 60.5,41.5 C 61.0965,42.9354 61.0965,44.602 60.5,46.5C 60.7373,47.791 60.404,48.791 59.5,49.5C 59.1667,49.5 58.8333,49.5 58.5,49.5C 57.5084,49.6716 56.8417,49.3382 56.5,48.5C 58.2055,46.388 59.5389,44.0547 60.5,41.5 Z"/></g>
<g><path style="opacity:0.957" fill="#649ce1" d="M 79.5,42.5 C 78.2046,43.0306 77.5379,44.3639 77.5,46.5C 76.7784,46.9175 76.2784,47.5842 76,48.5C 75.9378,46.8853 75.7711,45.5519 75.5,44.5C 75.5,43.5 75.5,42.5 75.5,41.5C 76.9621,40.5291 78.2954,40.8624 79.5,42.5 Z"/></g>
<g><path style="opacity:0.624" fill="#6e9bcf" d="M 7.5,44.5 C 8.16667,44.5 8.83333,44.5 9.5,44.5C 10.391,45.1098 11.391,45.4431 12.5,45.5C 12.369,46.2389 12.5357,46.9056 13,47.5C 14.3297,46.4178 15.8297,45.7512 17.5,45.5C 21.6509,46.4537 22.3175,48.4537 19.5,51.5C 19.5,50.8333 19.5,50.1667 19.5,49.5C 19.719,48.325 19.3857,47.325 18.5,46.5C 17.3044,46.8457 17.3044,47.3457 18.5,48C 14.1946,49.0854 12.1946,51.9188 12.5,56.5C 12.1667,56.5 11.8333,56.5 11.5,56.5C 12.0738,52.7334 10.9071,49.7334 8,47.5C 7.51722,46.552 7.35055,45.552 7.5,44.5 Z"/></g>
<g><path style="opacity:0.694" fill="#6da0da" d="M 53.5,46.5 C 53.8333,47.5 54.5,48.1667 55.5,48.5C 55.8333,48.5 56.1667,48.5 56.5,48.5C 56.8417,49.3382 57.5084,49.6716 58.5,49.5C 57.516,52.0704 56.3493,52.0704 55,49.5C 54.3292,50.2524 53.4959,50.5858 52.5,50.5C 52.4431,49.391 52.1098,48.391 51.5,47.5C 52.1667,47.1667 52.8333,46.8333 53.5,46.5 Z"/></g>
<g><path style="opacity:0.905" fill="#589ceb" d="M 64.5,43.5 C 64.5,46.5 64.5,49.5 64.5,52.5C 64.9227,54.7812 64.256,56.4479 62.5,57.5C 63.5063,56.6043 63.5063,55.9377 62.5,55.5C 62.5,54.8333 62.5,54.1667 62.5,53.5C 62.7678,51.901 62.4345,50.5676 61.5,49.5C 61.8333,48.8333 62.1667,48.1667 62.5,47.5C 63.1667,46.1667 63.8333,44.8333 64.5,43.5 Z"/></g>
<g><path style="opacity:0.761" fill="#77a9db" d="M 75.5,44.5 C 75.7711,45.5519 75.9378,46.8853 76,48.5C 76.2784,47.5842 76.7784,46.9175 77.5,46.5C 78.209,47.404 79.209,47.7373 80.5,47.5C 79.1667,48.5 79.1667,49.5 80.5,50.5C 79.5,50.8333 78.8333,51.5 78.5,52.5C 77.8333,52.5 77.1667,52.5 76.5,52.5C 76.6107,51.8826 76.944,51.3826 77.5,51C 74.7392,49.2954 74.0726,47.1287 75.5,44.5 Z"/></g>
<g><path style="opacity:0.925" fill="#659ddc" d="M 19.5,49.5 C 16.5065,49.1457 15.5065,50.1457 16.5,52.5C 15.7109,52.7828 15.0442,53.2828 14.5,54C 15.5981,54.7697 15.5981,55.603 14.5,56.5C 14.5,57.1667 14.1667,57.5 13.5,57.5C 13.5,56.8333 13.1667,56.5 12.5,56.5C 12.1946,51.9188 14.1946,49.0854 18.5,48C 17.3044,47.3457 17.3044,46.8457 18.5,46.5C 19.3857,47.325 19.719,48.325 19.5,49.5 Z"/></g>
<g><path style="opacity:0.398" fill="#6194d0" d="M 19.5,49.5 C 19.5,50.1667 19.5,50.8333 19.5,51.5C 19.5,51.8333 19.5,52.1667 19.5,52.5C 18.3478,53.625 17.3478,53.625 16.5,52.5C 15.5065,50.1457 16.5065,49.1457 19.5,49.5 Z"/></g>
<g><path style="opacity:0.875" fill="#6ea0d9" d="M 35.5,47.5 C 35.8333,47.5 36.1667,47.5 36.5,47.5C 37.3382,47.8417 37.6716,48.5084 37.5,49.5C 37.5,50.1667 37.5,50.8333 37.5,51.5C 36.6588,52.9264 35.6588,54.2597 34.5,55.5C 33.8333,55.5 33.5,55.1667 33.5,54.5C 33.9175,53.7784 34.5842,53.2784 35.5,53C 34.6634,51.9887 34.33,50.8221 34.5,49.5C 35.3382,49.1583 35.6716,48.4916 35.5,47.5 Z"/></g>
<g><path style="opacity:0.235" fill="#7195c0" d="M 63.5,35.5 C 64.1174,35.6107 64.6174,35.944 65,36.5C 65.4994,41.8229 65.666,47.1563 65.5,52.5C 65.1667,52.5 64.8333,52.5 64.5,52.5C 64.5,49.5 64.5,46.5 64.5,43.5C 64.7947,41.2646 64.4614,39.2646 63.5,37.5C 63.5,36.8333 63.5,36.1667 63.5,35.5 Z"/></g>
<g><path style="opacity:0.286" fill="#6e9fe4" d="M 83.5,44.5 C 83.8333,44.5 84.1667,44.5 84.5,44.5C 84.5,44.8333 84.5,45.1667 84.5,45.5C 84.8333,46.8333 85.1667,48.1667 85.5,49.5C 85.6716,50.4916 85.3382,51.1583 84.5,51.5C 84.1667,51.5 83.8333,51.5 83.5,51.5C 83.5,51.1667 83.5,50.8333 83.5,50.5C 82.3122,48.9906 82.3122,46.9906 83.5,44.5 Z"/></g>
<g><path style="opacity:0.137" fill="#5e799b" d="M 84.5,45.5 C 85.4584,45.9528 86.2917,46.6195 87,47.5C 87.7358,50.592 87.5691,53.592 86.5,56.5C 86.1667,56.5 85.8333,56.5 85.5,56.5C 86.1032,53.9591 86.1032,51.6257 85.5,49.5C 85.1667,48.1667 84.8333,46.8333 84.5,45.5 Z"/></g>
<g><path style="opacity:0.958" fill="#589ae7" d="M 40.5,49.5 C 40.1667,50.8333 39.8333,52.1667 39.5,53.5C 39.5,53.8333 39.5,54.1667 39.5,54.5C 39.5569,55.609 39.8902,56.609 40.5,57.5C 39.5084,57.3284 38.8417,57.6618 38.5,58.5C 37.596,57.791 37.2627,56.791 37.5,55.5C 36.5,55.5 35.5,55.5 34.5,55.5C 35.6588,54.2597 36.6588,52.9264 37.5,51.5C 37.4346,51.9382 37.6012,52.2716 38,52.5C 38.3768,51.0577 39.2101,50.0577 40.5,49.5 Z"/></g>
<g><path style="opacity:0.933" fill="#5999e5" d="M 58.5,49.5 C 58.8333,49.5 59.1667,49.5 59.5,49.5C 58.962,51.1172 58.6287,52.7839 58.5,54.5C 57.8333,54.5 57.1667,54.5 56.5,54.5C 56.5,52.5 55.5,51.5 53.5,51.5C 52.8333,51.5 52.5,51.1667 52.5,50.5C 53.4959,50.5858 54.3292,50.2524 55,49.5C 56.3493,52.0704 57.516,52.0704 58.5,49.5 Z"/></g>
<g><path style="opacity:0.237" fill="#6485aa" d="M 64.5,52.5 C 64.8333,52.5 65.1667,52.5 65.5,52.5C 65.5,54.8333 65.5,57.1667 65.5,59.5C 64.5,59.5 63.5,59.5 62.5,59.5C 62.5,59.1667 62.5,58.8333 62.5,58.5C 62.5,58.1667 62.5,57.8333 62.5,57.5C 64.256,56.4479 64.9227,54.7812 64.5,52.5 Z"/></g>
<g><path style="opacity:0.906" fill="#5995d7" d="M 85.5,49.5 C 86.1032,51.6257 86.1032,53.9591 85.5,56.5C 84.9467,58.6569 83.9467,58.4903 82.5,56C 83.1667,55.6667 83.8333,55.3333 84.5,55C 83.3157,53.8545 83.3157,52.6879 84.5,51.5C 85.3382,51.1583 85.6716,50.4916 85.5,49.5 Z"/></g>
<g><path style="opacity:0.039" fill="#7385a6" d="M 16.5,52.5 C 17.3478,53.625 18.3478,53.625 19.5,52.5C 20.1667,55.5 20.8333,58.5 21.5,61.5C 20.0652,60.0867 19.0652,58.42 18.5,56.5C 17.1667,56.5 15.8333,56.5 14.5,56.5C 15.5981,55.603 15.5981,54.7697 14.5,54C 15.0442,53.2828 15.7109,52.7828 16.5,52.5 Z"/></g>
<g><path style="opacity:0.884" fill="#589de6" d="M 41.5,52.5 C 43.8333,52.5 46.1667,52.5 48.5,52.5C 48.5,53.1667 48.5,53.8333 48.5,54.5C 45.5,54.5 42.5,54.5 39.5,54.5C 39.5,54.1667 39.5,53.8333 39.5,53.5C 40.1667,53.1667 40.8333,52.8333 41.5,52.5 Z"/></g>
<g><path style="opacity:0.89" fill="#5ba0e7" d="M 53.5,51.5 C 55.5,51.5 56.5,52.5 56.5,54.5C 56.1667,54.5 55.8333,54.5 55.5,54.5C 53.1667,54.5 50.8333,54.5 48.5,54.5C 48.5,53.8333 48.5,53.1667 48.5,52.5C 50.4147,52.7845 52.0813,52.4511 53.5,51.5 Z"/></g>
<g><path style="opacity:0.157" fill="#7391bb" d="M 62.5,47.5 C 62.1667,48.1667 61.8333,48.8333 61.5,49.5C 59.8249,51.456 60.1582,52.7893 62.5,53.5C 62.5,54.1667 62.5,54.8333 62.5,55.5C 61.1667,55.1667 59.8333,54.8333 58.5,54.5C 58.6287,52.7839 58.962,51.1172 59.5,49.5C 60.404,48.791 60.7373,47.791 60.5,46.5C 61.9245,44.9689 62.5912,45.3023 62.5,47.5 Z"/></g>
<g><path style="opacity:0.149" fill="#7292b7" d="M 80.5,50.5 C 80.8333,50.5 81.1667,50.5 81.5,50.5C 81.8417,51.3382 82.5084,51.6716 83.5,51.5C 83.8333,51.5 84.1667,51.5 84.5,51.5C 83.3157,52.6879 83.3157,53.8545 84.5,55C 83.8333,55.3333 83.1667,55.6667 82.5,56C 83.9467,58.4903 84.9467,58.6569 85.5,56.5C 85.8333,56.5 86.1667,56.5 86.5,56.5C 87.404,57.209 87.7373,58.209 87.5,59.5C 85.0411,59.31 83.3745,60.31 82.5,62.5C 82.5,61.5 82.5,60.5 82.5,59.5C 80.8007,59.4729 79.4674,58.8062 78.5,57.5C 79.8333,55.8333 79.8333,54.1667 78.5,52.5C 78.8333,51.5 79.5,50.8333 80.5,50.5 Z"/></g>
<g><path style="opacity:0.902" fill="#5b9ee4" d="M 30.5,47.5 C 30.8333,47.5 31.1667,47.5 31.5,47.5C 31.1569,50.6533 31.4902,52.9866 32.5,54.5C 32.8333,54.5 33.1667,54.5 33.5,54.5C 33.5,55.1667 33.8333,55.5 34.5,55.5C 34.0679,56.7095 33.4013,57.7095 32.5,58.5C 31.8826,58.3893 31.3826,58.056 31,57.5C 30.5017,54.1832 30.335,50.8499 30.5,47.5 Z"/></g>
<g><path style="opacity:0.827" fill="#6c94c4" d="M 39.5,54.5 C 42.5,54.5 45.5,54.5 48.5,54.5C 50.8333,54.5 53.1667,54.5 55.5,54.5C 55.1583,55.3382 54.4916,55.6716 53.5,55.5C 50.1501,55.335 46.8168,55.5017 43.5,56C 42.944,56.3826 42.6107,56.8826 42.5,57.5C 41.8333,57.5 41.1667,57.5 40.5,57.5C 39.8902,56.609 39.5569,55.609 39.5,54.5 Z"/></g>
<g><path style="opacity:0.988" fill="#609ce1" d="M 55.5,54.5 C 55.8333,54.5 56.1667,54.5 56.5,54.5C 57.1667,54.5 57.8333,54.5 58.5,54.5C 59.8333,54.8333 61.1667,55.1667 62.5,55.5C 63.5063,55.9377 63.5063,56.6043 62.5,57.5C 62.5,57.8333 62.5,58.1667 62.5,58.5C 61.1667,58.5 59.8333,58.5 58.5,58.5C 58.5,58.1667 58.5,57.8333 58.5,57.5C 59.6602,55.7973 58.9935,55.1307 56.5,55.5C 56.5,56.5 56.5,57.5 56.5,58.5C 54.9826,58.5106 53.8159,59.1772 53,60.5C 52.805,59.1807 52.9717,57.8474 53.5,56.5C 53.5,56.1667 53.5,55.8333 53.5,55.5C 54.4916,55.6716 55.1583,55.3382 55.5,54.5 Z"/></g>
<g><path style="opacity:0.42" fill="#6c9bd1" d="M 76.5,52.5 C 77.1667,52.5 77.8333,52.5 78.5,52.5C 79.8333,54.1667 79.8333,55.8333 78.5,57.5C 77.6554,58.6715 76.9887,60.0048 76.5,61.5C 75.7095,62.4013 74.7095,63.0679 73.5,63.5C 74.1495,61.5648 74.4828,59.5648 74.5,57.5C 75.1667,55.8333 75.8333,54.1667 76.5,52.5 Z"/></g>
<g><path style="opacity:0.906" fill="#6896cc" d="M 34.5,55.5 C 35.5,55.5 36.5,55.5 37.5,55.5C 37.2627,56.791 37.596,57.791 38.5,58.5C 38.5,59.1667 38.8333,59.5 39.5,59.5C 41.4113,60.075 43.078,61.075 44.5,62.5C 43.3684,63.3543 42.035,63.3543 40.5,62.5C 38.5648,61.8505 36.5648,61.5172 34.5,61.5C 33.8333,60.8333 33.1667,60.1667 32.5,59.5C 32.5,59.1667 32.5,58.8333 32.5,58.5C 33.4013,57.7095 34.0679,56.7095 34.5,55.5 Z"/></g>
<g><path style="opacity:0.576" fill="#76a5da" d="M 14.5,56.5 C 15.8333,56.5 17.1667,56.5 18.5,56.5C 16.567,59.0947 16.567,61.428 18.5,63.5C 17.8333,63.5 17.1667,63.5 16.5,63.5C 16.5,62.8333 16.1667,62.5 15.5,62.5C 15.5,62.1667 15.5,61.8333 15.5,61.5C 14.8333,60.1667 14.1667,58.8333 13.5,57.5C 14.1667,57.5 14.5,57.1667 14.5,56.5 Z"/></g>
<g><path style="opacity:0.894" fill="#5b94d3" d="M 38.5,58.5 C 38.8417,57.6618 39.5084,57.3284 40.5,57.5C 41.1667,57.5 41.8333,57.5 42.5,57.5C 43.1667,57.5 43.5,57.8333 43.5,58.5C 43.8333,59.8333 44.1667,61.1667 44.5,62.5C 43.078,61.075 41.4113,60.075 39.5,59.5C 38.8333,59.5 38.5,59.1667 38.5,58.5 Z"/></g>
<g><path style="opacity:0.035" fill="#8cadc7" d="M 11.5,56.5 C 11.8333,56.5 12.1667,56.5 12.5,56.5C 13.1667,56.5 13.5,56.8333 13.5,57.5C 14.1667,58.8333 14.8333,60.1667 15.5,61.5C 13.8864,60.7286 12.3864,59.7286 11,58.5C 9.28197,59.0311 9.1153,59.6977 10.5,60.5C 10.6716,61.4916 10.3382,62.1583 9.5,62.5C 8.53862,60.7354 8.20528,58.7354 8.5,56.5C 9.5,56.5 10.5,56.5 11.5,56.5 Z"/></g>
<g><path style="opacity:0.949" fill="#638cbd" d="M 58.5,57.5 C 57.1667,57.8333 57.1667,58.1667 58.5,58.5C 59.8333,58.5 61.1667,58.5 62.5,58.5C 62.5,58.8333 62.5,59.1667 62.5,59.5C 61.4549,60.8776 60.1216,61.8776 58.5,62.5C 58.5,61.8333 58.1667,61.5 57.5,61.5C 57.1667,60.8333 56.8333,60.1667 56.5,59.5C 56.5,59.1667 56.5,58.8333 56.5,58.5C 56.5,57.5 56.5,56.5 56.5,55.5C 58.9935,55.1307 59.6602,55.7973 58.5,57.5 Z"/></g>
<g><path style="opacity:0.973" fill="#569be6" d="M 78.5,57.5 C 79.4674,58.8062 80.8007,59.4729 82.5,59.5C 82.5,60.5 82.5,61.5 82.5,62.5C 82.1667,62.5 81.8333,62.5 81.5,62.5C 81.44,61.9569 81.1067,61.6236 80.5,61.5C 79.8243,62.6016 79.1577,63.6016 78.5,64.5C 78.7148,62.8212 78.0481,61.8212 76.5,61.5C 76.9887,60.0048 77.6554,58.6715 78.5,57.5 Z"/></g>
<g><path style="opacity:0.035" fill="#7199d2" d="M 15.5,61.5 C 15.5,61.8333 15.5,62.1667 15.5,62.5C 13.4862,62.6085 11.8195,61.9418 10.5,60.5C 9.1153,59.6977 9.28197,59.0311 11,58.5C 12.3864,59.7286 13.8864,60.7286 15.5,61.5 Z"/></g>
<g><path style="opacity:0.741" fill="#5799e1" d="M 56.5,59.5 C 56.8333,60.1667 57.1667,60.8333 57.5,61.5C 55.1667,62.8333 52.8333,64.1667 50.5,65.5C 50.5,64.1667 50.5,62.8333 50.5,61.5C 51.2216,61.9175 51.7216,62.5842 52,63.5C 53.6667,62.2668 55.1667,60.9335 56.5,59.5 Z"/></g>
<g><path style="opacity:0.851" fill="#629add" d="M 74.5,57.5 C 74.4828,59.5648 74.1495,61.5648 73.5,63.5C 72.8333,63.5 72.1667,63.5 71.5,63.5C 71.087,60.6798 72.087,58.6798 74.5,57.5 Z"/></g>
<g><path style="opacity:0.682" fill="#759fc1" d="M 43.5,58.5 C 45.1793,59.9163 46.8459,61.2497 48.5,62.5C 48.6309,63.3764 48.2975,64.0431 47.5,64.5C 46.4822,63.8075 45.4822,63.1408 44.5,62.5C 44.1667,61.1667 43.8333,59.8333 43.5,58.5 Z"/></g>
<g><path style="opacity:0.863" fill="#7ea3cd" d="M 53.5,56.5 C 52.9717,57.8474 52.805,59.1807 53,60.5C 53.8159,59.1772 54.9826,58.5106 56.5,58.5C 56.5,58.8333 56.5,59.1667 56.5,59.5C 55.1667,60.9335 53.6667,62.2668 52,63.5C 51.7216,62.5842 51.2216,61.9175 50.5,61.5C 50.5,61.1667 50.5,60.8333 50.5,60.5C 51.0256,58.7697 52.0256,57.4363 53.5,56.5 Z"/></g>
<g><path style="opacity:0.989" fill="#619de3" d="M 10.5,60.5 C 11.8195,61.9418 13.4862,62.6085 15.5,62.5C 16.1667,62.5 16.5,62.8333 16.5,63.5C 16.4431,64.609 16.1098,65.609 15.5,66.5C 14.5,66.5 13.5,66.5 12.5,66.5C 11.1224,65.4549 10.1224,64.1216 9.5,62.5C 10.3382,62.1583 10.6716,61.4916 10.5,60.5 Z"/></g>
<g><path style="opacity:0.631" fill="#738daa" d="M 34.5,61.5 C 36.5648,61.5172 38.5648,61.8505 40.5,62.5C 41.1667,63.5 41.8333,64.5 42.5,65.5C 39.7018,64.3503 37.0352,63.017 34.5,61.5 Z"/></g>
<g><path style="opacity:0.941" fill="#5a9ade" d="M 18.5,56.5 C 19.0652,58.42 20.0652,60.0867 21.5,61.5C 21.5,61.8333 21.5,62.1667 21.5,62.5C 20.2502,62.5774 19.4169,63.244 19,64.5C 18.6012,64.2716 18.4346,63.9382 18.5,63.5C 16.567,61.428 16.567,59.0947 18.5,56.5 Z"/></g>
<g><path style="opacity:0.978" fill="#5b9be4" d="M 50.5,60.5 C 50.5,60.8333 50.5,61.1667 50.5,61.5C 50.5,62.8333 50.5,64.1667 50.5,65.5C 48.9582,66.3007 47.2915,66.634 45.5,66.5C 44.209,66.7373 43.209,66.404 42.5,65.5C 41.8333,64.5 41.1667,63.5 40.5,62.5C 42.035,63.3543 43.3684,63.3543 44.5,62.5C 45.4822,63.1408 46.4822,63.8075 47.5,64.5C 48.2975,64.0431 48.6309,63.3764 48.5,62.5C 48.8333,61.5 49.5,60.8333 50.5,60.5 Z"/></g>
<g><path style="opacity:0.882" fill="#609ee0" d="M 76.5,61.5 C 78.0481,61.8212 78.7148,62.8212 78.5,64.5C 78.1667,64.5 77.8333,64.5 77.5,64.5C 76.6715,63.6676 75.8382,64.001 75,65.5C 74.2828,64.9558 73.7828,64.2891 73.5,63.5C 74.7095,63.0679 75.7095,62.4013 76.5,61.5 Z"/></g>
<g><path style="opacity:0.993" fill="#529de9" d="M 21.5,62.5 C 21.5674,63.9587 21.2341,65.2921 20.5,66.5C 18.8333,66.5 17.1667,66.5 15.5,66.5C 16.1098,65.609 16.4431,64.609 16.5,63.5C 17.1667,63.5 17.8333,63.5 18.5,63.5C 18.4346,63.9382 18.6012,64.2716 19,64.5C 19.4169,63.244 20.2502,62.5774 21.5,62.5 Z"/></g>
<g><path style="opacity:0.675" fill="#92b2dd" d="M 71.5,63.5 C 72.1667,63.5 72.8333,63.5 73.5,63.5C 73.7828,64.2891 74.2828,64.9558 75,65.5C 75.8382,64.001 76.6715,63.6676 77.5,64.5C 76.713,66.1042 75.3797,66.7709 73.5,66.5C 72.663,66.6021 71.9963,67.6021 71.5,69.5C 70.7492,68.624 70.2492,67.624 70,66.5C 69.3292,67.2524 68.4959,67.5858 67.5,67.5C 68.5,65.8333 69.8333,64.5 71.5,63.5 Z"/></g>
<g><path style="opacity:0.141" fill="#7084a0" d="M 57.5,61.5 C 58.1667,61.5 58.5,61.8333 58.5,62.5C 55.0184,64.7426 51.3517,66.7426 47.5,68.5C 46.2867,68.2528 45.62,67.5862 45.5,66.5C 47.2915,66.634 48.9582,66.3007 50.5,65.5C 52.8333,64.1667 55.1667,62.8333 57.5,61.5 Z"/></g>
<g><path style="opacity:0.42" fill="#81a3c0" d="M 12.5,66.5 C 13.5,66.5 14.5,66.5 15.5,66.5C 17.1667,66.5 18.8333,66.5 20.5,66.5C 19.1938,67.4674 18.5271,68.8007 18.5,70.5C 16.4436,69.8738 14.4436,68.5404 12.5,66.5 Z"/></g>
<g><path style="opacity:0.631" fill="#688fbf" d="M 23.5,63.5 C 24.9952,63.9887 26.3285,64.6554 27.5,65.5C 27.6716,66.4916 27.3382,67.1583 26.5,67.5C 23.4502,67.3538 22.4502,66.0204 23.5,63.5 Z"/></g>
<g><path style="opacity:0.996" fill="#5696da" d="M 81.5,62.5 C 81.5,63.1667 81.5,63.8333 81.5,64.5C 79.5248,66.137 77.5248,67.8036 75.5,69.5C 74.8333,68.5 74.1667,67.5 73.5,66.5C 75.3797,66.7709 76.713,66.1042 77.5,64.5C 77.8333,64.5 78.1667,64.5 78.5,64.5C 79.1577,63.6016 79.8243,62.6016 80.5,61.5C 81.1067,61.6236 81.44,61.9569 81.5,62.5 Z"/></g>
<g><path style="opacity:0.031" fill="#7596ac" d="M 81.5,64.5 C 82.0431,64.56 82.3764,64.8933 82.5,65.5C 81.4717,67.3615 79.9717,68.6948 78,69.5C 77.6667,70.8333 77.3333,72.1667 77,73.5C 76.586,73.0426 76.086,72.7093 75.5,72.5C 74.8182,73.2427 74.1515,73.9094 73.5,74.5C 73.5674,73.0413 73.2341,71.7079 72.5,70.5C 73.5832,70.5394 74.5832,70.8728 75.5,71.5C 76.463,71.0302 76.463,70.3635 75.5,69.5C 77.5248,67.8036 79.5248,66.137 81.5,64.5 Z"/></g>
<g><path style="opacity:0.986" fill="#5c98de" d="M 21.5,62.5 C 22.4916,62.3284 23.1583,62.6618 23.5,63.5C 22.4502,66.0204 23.4502,67.3538 26.5,67.5C 27.8333,68.8333 27.8333,70.1667 26.5,71.5C 25.7784,71.9175 25.2784,72.5842 25,73.5C 24.7679,72.2625 24.2679,71.2625 23.5,70.5C 23.2893,68.5759 22.6226,68.2426 21.5,69.5C 20.609,70.1098 19.609,70.4431 18.5,70.5C 18.5271,68.8007 19.1938,67.4674 20.5,66.5C 21.2341,65.2921 21.5674,63.9587 21.5,62.5 Z"/></g>
<g><path style="opacity:0.678" fill="#7492ae" d="M 27.5,65.5 C 28.3847,68.06 30.0514,70.06 32.5,71.5C 32.1667,72.1667 31.8333,72.8333 31.5,73.5C 30.8444,72.7222 30.0111,72.0556 29,71.5C 28.2352,71.5699 27.7352,71.9033 27.5,72.5C 26.8333,72.5 26.5,72.1667 26.5,71.5C 27.8333,70.1667 27.8333,68.8333 26.5,67.5C 27.3382,67.1583 27.6716,66.4916 27.5,65.5 Z"/></g>
<g><path style="opacity:0.804" fill="#6496cd" d="M 73.5,66.5 C 74.1667,67.5 74.8333,68.5 75.5,69.5C 76.463,70.3635 76.463,71.0302 75.5,71.5C 74.5832,70.8728 73.5832,70.5394 72.5,70.5C 71.8333,70.5 71.1667,70.5 70.5,70.5C 68.8049,69.1736 67.4716,69.5069 66.5,71.5C 66.5,70.1667 66.5,68.8333 66.5,67.5C 66.8333,67.5 67.1667,67.5 67.5,67.5C 68.4959,67.5858 69.3292,67.2524 70,66.5C 70.2492,67.624 70.7492,68.624 71.5,69.5C 71.9963,67.6021 72.663,66.6021 73.5,66.5 Z"/></g>
<g><path style="opacity:0.504" fill="#7ea0c4" d="M 23.5,70.5 C 22.8333,71.8333 21.8333,72.8333 20.5,73.5C 19.8333,72.5 19.1667,71.5 18.5,70.5C 19.609,70.4431 20.609,70.1098 21.5,69.5C 22.6226,68.2426 23.2893,68.5759 23.5,70.5 Z"/></g>
<g><path style="opacity:0.192" fill="#79ace7" d="M 66.5,67.5 C 66.5,68.8333 66.5,70.1667 66.5,71.5C 65.5,71.8333 64.8333,72.5 64.5,73.5C 63.3478,74.625 62.3478,74.625 61.5,73.5C 63.4119,72.0199 64.5785,70.0199 65,67.5C 65.69,66.2617 66.19,66.2617 66.5,67.5 Z"/></g>
<g><path style="opacity:0.659" fill="#567094" d="M 70.5,70.5 C 71.1667,70.5 71.8333,70.5 72.5,70.5C 73.2341,71.7079 73.5674,73.0413 73.5,74.5C 73.5,75.1667 73.1667,75.5 72.5,75.5C 71.8333,75.5 71.1667,75.5 70.5,75.5C 72.7963,71.8866 71.9629,71.5532 68,74.5C 67.8333,74.1667 67.6667,73.8333 67.5,73.5C 68.3398,72.265 69.3398,71.265 70.5,70.5 Z"/></g>
<g><path style="opacity:0.396" fill="#73a3d9" d="M 32.5,71.5 C 35.5465,71.1826 37.2132,72.5159 37.5,75.5C 37.1667,76.5 36.5,77.1667 35.5,77.5C 35.5,76.8333 35.1667,76.5 34.5,76.5C 34.5,74.5 33.5,73.5 31.5,73.5C 31.8333,72.8333 32.1667,72.1667 32.5,71.5 Z"/></g>
<g><path style="opacity:0.255" fill="#7696bd" d="M 23.5,70.5 C 24.2679,71.2625 24.7679,72.2625 25,73.5C 25.2784,72.5842 25.7784,71.9175 26.5,71.5C 26.5,72.1667 26.8333,72.5 27.5,72.5C 27.5,73.1667 27.5,73.8333 27.5,74.5C 26.1416,76.7428 26.8083,78.4095 29.5,79.5C 31.246,80.0013 32.246,80.6679 32.5,81.5C 29.3185,82.564 26.9852,81.3973 25.5,78C 24.1667,77.6667 22.8333,77.3333 21.5,77C 21.9574,76.586 22.2907,76.086 22.5,75.5C 21.7573,74.8182 21.0906,74.1515 20.5,73.5C 21.8333,72.8333 22.8333,71.8333 23.5,70.5 Z"/></g>
<g><path style="opacity:0.998" fill="#609ddf" d="M 70.5,70.5 C 69.3398,71.265 68.3398,72.265 67.5,73.5C 67.6667,73.8333 67.8333,74.1667 68,74.5C 71.9629,71.5532 72.7963,71.8866 70.5,75.5C 68.9938,76.2301 67.6605,76.5634 66.5,76.5C 65.0937,76.0269 64.427,75.0269 64.5,73.5C 64.8333,72.5 65.5,71.8333 66.5,71.5C 67.4716,69.5069 68.8049,69.1736 70.5,70.5 Z"/></g>
<g><path style="opacity:0.408" fill="#6793c4" d="M 31.5,73.5 C 33.5,73.5 34.5,74.5 34.5,76.5C 31.3852,78.2372 29.0519,77.5705 27.5,74.5C 27.5,73.8333 27.5,73.1667 27.5,72.5C 27.7352,71.9033 28.2352,71.5699 29,71.5C 30.0111,72.0556 30.8444,72.7222 31.5,73.5 Z"/></g>
<g><path style="opacity:0.994" fill="#5a9fe8" d="M 27.5,74.5 C 29.0519,77.5705 31.3852,78.2372 34.5,76.5C 35.1667,76.5 35.5,76.8333 35.5,77.5C 33.3024,77.8751 31.3024,78.5418 29.5,79.5C 26.8083,78.4095 26.1416,76.7428 27.5,74.5 Z"/></g>
<g><path style="opacity:0.941" fill="#5e8fcf" d="M 46.5,74.5 C 48.4147,74.2155 50.0813,74.5489 51.5,75.5C 50.9569,75.56 50.6236,75.8933 50.5,76.5C 54.4647,77.5159 54.4647,78.5159 50.5,79.5C 49.4324,78.5655 48.099,78.2322 46.5,78.5C 46.5,77.1667 46.5,75.8333 46.5,74.5 Z"/></g>
<g><path style="opacity:0.122" fill="#7597c1" d="M 51.5,75.5 C 52.5,75.5 53.5,75.5 54.5,75.5C 55.8333,76.8333 55.8333,78.1667 54.5,79.5C 52.9064,79.9195 51.4064,80.5862 50,81.5C 49.5,81.3333 49,81.1667 48.5,81C 49.4158,80.7216 50.0825,80.2216 50.5,79.5C 54.4647,78.5159 54.4647,77.5159 50.5,76.5C 50.6236,75.8933 50.9569,75.56 51.5,75.5 Z"/></g>
<g><path style="opacity:0.996" fill="#5c99da" d="M 58.5,74.5 C 59.1667,74.5 59.8333,74.5 60.5,74.5C 60.3893,75.1174 60.056,75.6174 59.5,76C 60.7932,76.49 62.1266,76.6567 63.5,76.5C 63.7373,77.791 63.404,78.791 62.5,79.5C 62.5912,77.3023 61.9245,76.9689 60.5,78.5C 59.6016,77.8423 58.6016,77.1757 57.5,76.5C 57.8627,75.8165 58.1961,75.1499 58.5,74.5 Z"/></g>
<g><path style="opacity:0.982" fill="#569ce6" d="M 61.5,73.5 C 62.3478,74.625 63.3478,74.625 64.5,73.5C 64.427,75.0269 65.0937,76.0269 66.5,76.5C 66.5,76.8333 66.5,77.1667 66.5,77.5C 66.5,79.1667 66.5,80.8333 66.5,82.5C 63.9954,82.9802 61.6621,83.9802 59.5,85.5C 58.8933,85.3764 58.56,85.0431 58.5,84.5C 59.4674,83.1938 60.8007,82.5271 62.5,82.5C 62.5,81.5 62.5,80.5 62.5,79.5C 63.404,78.791 63.7373,77.791 63.5,76.5C 62.1266,76.6567 60.7932,76.49 59.5,76C 60.056,75.6174 60.3893,75.1174 60.5,74.5C 60.5,73.8333 60.8333,73.5 61.5,73.5 Z"/></g>
<g><path style="opacity:0.027" fill="#7999b0" d="M 70.5,75.5 C 71.1667,75.5 71.8333,75.5 72.5,75.5C 71.3998,76.5585 70.0664,77.3918 68.5,78C 69.5981,78.7697 69.5981,79.603 68.5,80.5C 67.8333,79.5 67.1667,78.5 66.5,77.5C 66.5,77.1667 66.5,76.8333 66.5,76.5C 67.6605,76.5634 68.9938,76.2301 70.5,75.5 Z"/></g>
<g><path style="opacity:0.979" fill="#5796e2" d="M 37.5,75.5 C 38.1667,75.5 38.8333,75.5 39.5,75.5C 39.4431,76.609 39.1098,77.609 38.5,78.5C 36.4313,79.7712 34.7647,81.4379 33.5,83.5C 32.6618,83.1583 32.3284,82.4916 32.5,81.5C 32.246,80.6679 31.246,80.0013 29.5,79.5C 31.3024,78.5418 33.3024,77.8751 35.5,77.5C 36.5,77.1667 37.1667,76.5 37.5,75.5 Z"/></g>
<g><path style="opacity:0.914" fill="#74a3d8" d="M 39.5,75.5 C 40.9587,75.4326 42.2921,75.7659 43.5,76.5C 43.5569,77.609 43.8902,78.609 44.5,79.5C 42.3441,77.8823 40.6774,78.2157 39.5,80.5C 38.6618,80.1583 38.3284,79.4916 38.5,78.5C 39.1098,77.609 39.4431,76.609 39.5,75.5 Z"/></g>
<g><path style="opacity:0.271" fill="#7ca2bf" d="M 58.5,74.5 C 58.1961,75.1499 57.8627,75.8165 57.5,76.5C 58.6016,77.1757 59.6016,77.8423 60.5,78.5C 58.2972,78.6036 56.2972,79.2702 54.5,80.5C 54.5,80.1667 54.5,79.8333 54.5,79.5C 55.8333,78.1667 55.8333,76.8333 54.5,75.5C 55.5676,74.5655 56.901,74.2322 58.5,74.5 Z"/></g>
<g><path style="opacity:0.545" fill="#94b6dc" d="M 46.5,74.5 C 46.5,75.8333 46.5,77.1667 46.5,78.5C 48.099,78.2322 49.4324,78.5655 50.5,79.5C 49.1667,79.5 47.8333,79.5 46.5,79.5C 45.8333,79.5 45.1667,79.5 44.5,79.5C 43.8902,78.609 43.5569,77.609 43.5,76.5C 44.1174,76.6107 44.6174,76.944 45,77.5C 45.2321,76.2625 45.7321,75.2625 46.5,74.5 Z"/></g>
<g><path style="opacity:0.086" fill="#6582b0" d="M 44.5,79.5 C 45.1667,79.5 45.8333,79.5 46.5,79.5C 46.4142,80.4959 46.7476,81.3292 47.5,82C 46.9056,82.4643 46.2389,82.631 45.5,82.5C 44.6043,81.4937 43.9377,81.4937 43.5,82.5C 42.3989,80.6061 41.0655,79.9394 39.5,80.5C 40.6774,78.2157 42.3441,77.8823 44.5,79.5 Z"/></g>
<g><path style="opacity:0.808" fill="#5d9de2" d="M 60.5,78.5 C 58.9478,81.1119 56.6145,82.4452 53.5,82.5C 53.3284,81.5084 53.6618,80.8417 54.5,80.5C 56.2972,79.2702 58.2972,78.6036 60.5,78.5 Z"/></g>
<g><path style="opacity:0.753" fill="#639ede" d="M 46.5,79.5 C 47.8333,79.5 49.1667,79.5 50.5,79.5C 50.0825,80.2216 49.4158,80.7216 48.5,81C 49,81.1667 49.5,81.3333 50,81.5C 51.4064,80.5862 52.9064,79.9195 54.5,79.5C 54.5,79.8333 54.5,80.1667 54.5,80.5C 53.6618,80.8417 53.3284,81.5084 53.5,82.5C 50.3732,82.4855 47.7065,83.4855 45.5,85.5C 44.5836,85.4573 43.9169,85.1239 43.5,84.5C 43.5,84.1667 43.5,83.8333 43.5,83.5C 44.4916,83.6716 45.1583,83.3382 45.5,82.5C 46.2389,82.631 46.9056,82.4643 47.5,82C 46.7476,81.3292 46.4142,80.4959 46.5,79.5 Z"/></g>
<g><path style="opacity:0.122" fill="#778ea7" d="M 62.5,79.5 C 62.5,80.5 62.5,81.5 62.5,82.5C 60.8007,82.5271 59.4674,83.1938 58.5,84.5C 57.8333,84.8333 57.1667,85.1667 56.5,85.5C 56.631,84.7611 56.4643,84.0944 56,83.5C 53.9972,85.4576 51.8305,85.7909 49.5,84.5C 50.8333,83.8333 52.1667,83.1667 53.5,82.5C 56.6145,82.4452 58.9478,81.1119 60.5,78.5C 61.9245,76.9689 62.5912,77.3023 62.5,79.5 Z"/></g>
<g><path style="opacity:0.584" fill="#6985a6" d="M 38.5,78.5 C 38.3284,79.4916 38.6618,80.1583 39.5,80.5C 41.0655,79.9394 42.3989,80.6061 43.5,82.5C 43.5,82.8333 43.5,83.1667 43.5,83.5C 43.5,83.8333 43.5,84.1667 43.5,84.5C 43.1667,84.5 42.8333,84.5 42.5,84.5C 40.9555,82.195 38.9555,81.8617 36.5,83.5C 35.8333,83.5 35.1667,83.5 34.5,83.5C 34.1667,83.5 33.8333,83.5 33.5,83.5C 34.7647,81.4379 36.4313,79.7712 38.5,78.5 Z"/></g>
<g><path style="opacity:0.145" fill="#7382a2" d="M 66.5,77.5 C 67.1667,78.5 67.8333,79.5 68.5,80.5C 67.4324,82.7402 65.7658,84.5736 63.5,86C 60.9615,86.7958 58.6282,86.6291 56.5,85.5C 57.1667,85.1667 57.8333,84.8333 58.5,84.5C 58.56,85.0431 58.8933,85.3764 59.5,85.5C 61.6621,83.9802 63.9954,82.9802 66.5,82.5C 66.5,80.8333 66.5,79.1667 66.5,77.5 Z"/></g>
<g><path style="opacity:0.949" fill="#649dd8" d="M 42.5,84.5 C 42.5,85.1667 42.1667,85.5 41.5,85.5C 39.2188,85.9227 37.5521,85.256 36.5,83.5C 38.9555,81.8617 40.9555,82.195 42.5,84.5 Z"/></g>
<g><path style="opacity:0.184" fill="#7b91ac" d="M 34.5,83.5 C 35.1667,83.5 35.8333,83.5 36.5,83.5C 37.5521,85.256 39.2188,85.9227 41.5,85.5C 42.8333,86.1667 44.1667,86.8333 45.5,87.5C 42.0075,87.0025 38.6741,87.0025 35.5,87.5C 35.5674,86.0413 35.2341,84.7079 34.5,83.5 Z"/></g>
<g><path style="opacity:0.937" fill="#557dac" d="M 53.5,82.5 C 52.1667,83.1667 50.8333,83.8333 49.5,84.5C 48.7377,86.2624 47.4044,87.2624 45.5,87.5C 44.1667,86.8333 42.8333,86.1667 41.5,85.5C 42.1667,85.5 42.5,85.1667 42.5,84.5C 42.8333,84.5 43.1667,84.5 43.5,84.5C 43.9169,85.1239 44.5836,85.4573 45.5,85.5C 47.7065,83.4855 50.3732,82.4855 53.5,82.5 Z"/></g>
</svg>
